#!OML:ASF H:\BabyWalks\Project 1\Capture day 1\Session 1\baby.ASF
:FULLY-SPECIFIED
:DEGREES
316
root -14.3651 15.9791 -2.29857 104.302 -85.5222 -122.294
lowerback 12.3811 0.121834 0.702288
upperback 3.26112 0.144077 0.61911
thorax -3.52146 0.0113319 0.230508
lowerneck -6.68745 -0.142776 4.771
upperneck 5.91865 -0.345564 -4.34582
head 3.09677 -0.227077 -2.29911
rclavicle 3.97569e-015 3.57812e-015
rhumerus 20.7434 -6.65736 -64.8374
rradius 67.8345
rwrist 21.4679
rhand 23.2341 -24.3266
rfingers 7.12502
rthumb 47.5351 -46.7534
lclavicle 3.97569e-015 3.57812e-015
lhumerus 20.7099 1.61035 60.0883
lradius 73.3718
lwrist -6.23415
lhand 27.0854 32.6019
lfingers 7.12502
lthumb 51.0685 53.2449
rfemur 2.695 -12.6758 11.1305
rtibia 54.2151
rfoot -32.2763 -9.79033
rtoes -12.8524
lfemur 1.59246 11.7267 1.309
ltibia 52.7124
lfoot -35.8172 -8.30171
ltoes -13.1588
317
root -14.3664 15.9778 -2.3001 104.897 -85.5255 -122.915
lowerback 12.3828 0.143149 0.636197
upperback 3.25311 0.164903 0.628838
thorax -3.53105 0.0221149 0.274765
lowerneck -6.42767 -0.175393 5.06316
upperneck 5.68494 -0.388863 -4.66338
head 2.96937 -0.251786 -2.45562
rclavicle -1.68967e-015 1.19271e-015
rhumerus 20.7206 -6.60179 -64.8561
rradius 67.8161
rwrist 21.4682
rhand 23.2454 -24.3123
rfingers 7.12502
rthumb 47.5456 -46.7344
lclavicle -1.68967e-015 1.19271e-015
lhumerus 20.692 1.55346 60.0807
lradius 73.3736
lwrist -6.27439
lhand 27.1478 32.6071
lfingers 7.12502
lthumb 51.1254 53.2182
rfemur 2.70002 -12.6103 11.1273
rtibia 54.2281
rfoot -32.2865 -9.79208
rtoes -12.8409
lfemur 1.63006 11.7872 1.32366
ltibia 52.7258
lfoot -35.8176 -8.33285
ltoes -13.1363
318
root -14.3661 15.9772 -2.29425 104.483 -85.647 -122.502
lowerback 12.3881 0.131896 0.609232
upperback 3.24485 0.145409 0.581426
thorax -3.54256 0.0128457 0.243522
lowerneck -6.51248 -0.177595 4.95429
upperneck 5.77789 -0.391743 -4.53992
head 3.0154 -0.25176 -2.39629
rclavicle 1.39149e-015 -1.43125e-014
rhumerus 20.697 -6.59964 -64.888
rradius 67.8089
rwrist 21.4947
rhand 23.2351 -24.3714
rfingers 7.12502
rthumb 47.5361 -46.7978
lclavicle 1.39149e-015 -1.43125e-014
lhumerus 20.7364 1.46752 60.0765
lradius 73.3611
lwrist -6.30816
lhand 27.1658 32.6201
lfingers 7.12502
lthumb 51.1418 53.222
rfemur 2.73229 -12.6887 10.9454
rtibia 54.2314
rfoot -32.3016 -9.72248
rtoes -12.7871
lfemur 1.61329 11.7321 1.16357
ltibia 52.7302
lfoot -35.829 -8.29587
ltoes -13.1719
319
root -14.3677 15.9773 -2.2977 104.886 -85.5 -122.942
lowerback 12.4123 0.147131 0.670409
upperback 3.24106 0.175076 0.627988
thorax -3.55961 0.0270028 0.253045
lowerneck -6.48731 -0.165285 4.98369
upperneck 5.78797 -0.375399 -4.56034
head 3.01531 -0.243479 -2.4078
rclavicle -9.44227e-015 3.97569e-016
rhumerus 20.6796 -6.56828 -64.9688
rradius 67.7971
rwrist 21.5211
rhand 23.2288 -24.3174
rfingers 7.12502
rthumb 47.5302 -46.7465
lclavicle -9.44227e-015 3.97569e-016
lhumerus 20.7232 1.41911 60.0364
lradius 73.3693
lwrist -6.34911
lhand 27.1861 32.629
lfingers 7.12502
lthumb 51.1603 53.2205
rfemur 2.74018 -12.5482 11.1594
rtibia 54.2295
rfoot -32.2871 -9.83824
rtoes -12.8274
lfemur 1.67723 11.7944 1.36529
ltibia 52.7399
lfoot -35.8442 -8.35341
ltoes -13.189
320
root -14.368 15.9776 -2.29587 105.204 -85.5115 -123.256
lowerback 12.4104 0.163911 0.662979
upperback 3.23167 0.196903 0.627809
thorax -3.56843 0.038037 0.253724
lowerneck -6.55648 -0.129834 4.77705
upperneck 5.90507 -0.324061 -4.34367
head 3.06819 -0.215151 -2.29653
rclavicle 1.49089e-016 1.43125e-014
rhumerus 20.6885 -6.55712 -64.9665
rradius 67.7797
rwrist 21.512
rhand 23.2658 -24.3362
rfingers 7.12502
rthumb 47.5644 -46.7498
lclavicle 1.49089e-016 1.43125e-014
lhumerus 20.7484 1.34866 60.0488
lradius 73.3741
lwrist -6.36958
lhand 27.1829 32.6383
lfingers 7.12502
lthumb 51.1574 53.2314
rfemur 2.73028 -12.497 11.1493
rtibia 54.2254
rfoot -32.291 -9.82867
rtoes -12.7184
lfemur 1.6831 11.8498 1.35811
ltibia 52.7423
lfoot -35.8392 -8.4074
ltoes -13.1029
321
root -14.3659 15.9759 -2.28935 105.037 -85.5929 -123.068
lowerback 12.4358 0.145783 0.664485
upperback 3.19555 0.17362 0.590661
thorax -3.61995 0.0269984 0.217694
lowerneck -6.58122 -0.151293 4.76248
upperneck 5.93196 -0.355314 -4.2946
head 3.07999 -0.229286 -2.27936
rclavicle -4.96962e-017 -1.19271e-015
rhumerus 20.6834 -6.52955 -65.0052
rradius 67.7463
rwrist 21.5262
rhand 23.2438 -24.3156
rfingers 7.12502
rthumb 47.5441 -46.7383
lclavicle -4.96962e-017 -1.19271e-015
lhumerus 20.8132 1.25992 60.0021
lradius 73.3328
lwrist -6.38009
lhand 27.1808 32.6689
lfingers 7.12502
lthumb 51.1555 53.2632
rfemur 2.72495 -12.5606 11.0174
rtibia 54.2226
rfoot -32.2825 -9.7926
rtoes -12.8028
lfemur 1.63766 11.8211 1.22882
ltibia 52.7619
lfoot -35.8416 -8.35397
ltoes -13.2138
322
root -14.3666 15.9762 -2.28766 105.052 -85.5266 -123.097
lowerback 12.4571 0.154346 0.738036
upperback 3.19103 0.195112 0.60829
thorax -3.636 0.037109 0.191295
lowerneck -6.57739 -0.160649 4.80851
upperneck 5.90733 -0.366901 -4.37553
head 3.07116 -0.237037 -2.3154
rclavicle -1.54058e-015 -1.98785e-015
rhumerus 20.6871 -6.52529 -65.0123
rradius 67.7421
rwrist 21.5158
rhand 23.2601 -24.328
rfingers 7.12502
rthumb 47.5592 -46.7439
lclavicle -1.54058e-015 -1.98785e-015
lhumerus 20.8626 1.19966 60.0392
lradius 73.3148
lwrist -6.40595
lhand 27.1538 32.6663
lfingers 7.12502
lthumb 51.1309 53.2744
rfemur 2.73105 -12.5082 11.1006
rtibia 54.2204
rfoot -32.2799 -9.83336
rtoes -12.8147
lfemur 1.66283 11.8444 1.31136
ltibia 52.7757
lfoot -35.853 -8.3802
ltoes -13.2056
323
root -14.3663 15.9737 -2.28578 105.13 -85.5345 -123.189
lowerback 12.4563 0.154669 0.7323
upperback 3.18674 0.195029 0.607891
thorax -3.64008 0.0371721 0.194126
lowerneck -6.52396 -0.148628 4.8421
upperneck 5.87902 -0.350425 -4.40303
head 3.05257 -0.228699 -2.32902
rclavicle -4.91992e-015 1.51076e-014
rhumerus 20.6915 -6.48635 -65.0364
rradius 67.7401
rwrist 21.502
rhand 23.2123 -24.3617
rfingers 7.12502
rthumb 47.515 -46.7977
lclavicle -4.91992e-015 1.51076e-014
lhumerus 20.8599 1.14867 60.0199
lradius 73.3332
lwrist -6.42666
lhand 27.1142 32.7085
lfingers 7.12502
lthumb 51.0948 53.3369
rfemur 2.74509 -12.5143 11.0706
rtibia 54.2213
rfoot -32.2716 -9.81024
rtoes -12.8444
lfemur 1.66424 11.8535 1.30266
ltibia 52.8104
lfoot -35.8763 -8.37857
ltoes -13.2081
324
root -14.3652 15.974 -2.28407 105.206 -85.531 -123.263
lowerback 12.4751 0.162491 0.745584
upperback 3.1747 0.207828 0.609734
thorax -3.66287 0.0435091 0.186579
lowerneck -6.54837 -0.165538 4.85399
upperneck 5.90153 -0.372798 -4.43233
head 3.06406 -0.240812 -2.34289
rclavicle -6.55989e-015 -3.97569e-016
rhumerus 20.6963 -6.48691 -65.0637
rradius 67.7236
rwrist 21.4999
rhand 23.1392 -24.3285
rfingers 7.12502
rthumb 47.4474 -46.7951
lclavicle -6.55989e-015 -3.97569e-016
lhumerus 20.8997 1.08096 60.0486
lradius 73.3308
lwrist -6.42687
lhand 27.1573 32.639
lfingers 7.12502
lthumb 51.134 53.2453
rfemur 2.72665 -12.4864 11.0817
rtibia 54.2232
rfoot -32.2641 -9.83131
rtoes -12.8674
lfemur 1.65309 11.8464 1.29167
ltibia 52.8283
lfoot -35.8682 -8.37935
ltoes -13.1507
325
root -14.3667 15.9718 -2.29074 105.457 -85.2642 -123.579
lowerback 12.5231 0.190037 0.869582
upperback 3.18317 0.26303 0.702498
thorax -3.67986 0.0694327 0.20485
lowerneck -6.39279 -0.113571 4.96176
upperneck 5.78246 -0.304047 -4.5044
head 2.99869 -0.205661 -2.38019
rclavicle -6.90777e-015 6.75868e-015
rhumerus 20.6894 -6.45313 -65.113
rradius 67.7248
rwrist 21.494
rhand 23.1535 -24.371
rfingers 7.12502
rthumb 47.4607 -46.8316
lclavicle -6.90777e-015 6.75868e-015
lhumerus 20.8984 1.0502 60.0668
lradius 73.3464
lwrist -6.43979
lhand 27.1606 32.6933
lfingers 7.12502
lthumb 51.137 53.2979
rfemur 2.75143 -12.309 11.448
rtibia 54.2186
rfoot -32.2439 -9.95989
rtoes -12.7964
lfemur 1.7388 11.9481 1.67128
ltibia 52.8758
lfoot -35.9188 -8.50063
ltoes -13.1047
326
root -14.3642 15.9721 -2.28023 105.153 -85.5273 -123.233
lowerback 12.5199 0.153576 0.741569
upperback 3.14444 0.197527 0.618665
thorax -3.71906 0.0386106 0.199719
lowerneck -6.47065 -0.158792 5.01685
upperneck 5.88734 -0.364346 -4.60464
head 3.04731 -0.238598 -2.43008
rclavicle 7.7526e-015 -5.96354e-015
rhumerus 20.6856 -6.42035 -65.1519
rradius 67.7052
rwrist 21.5043
rhand 23.1055 -24.3352
rfingers 7.12502
rthumb 47.4164 -46.8158
lclavicle 7.7526e-015 -5.96354e-015
lhumerus 20.8959 1.00612 60.0763
lradius 73.3412
lwrist -6.41574
lhand 27.1878 32.7117
lfingers 7.12502
lthumb 51.1618 53.3024
rfemur 2.75069 -12.4801 11.0662
rtibia 54.2238
rfoot -32.2413 -9.82473
rtoes -12.8749
lfemur 1.64861 11.8523 1.29085
ltibia 52.8861
lfoot -35.9066 -8.36524
ltoes -13.2175
327
root -14.3648 15.9697 -2.28567 105.186 -85.2419 -123.324
lowerback 12.5645 0.180926 0.920017
upperback 3.1561 0.259433 0.714199
thorax -3.73056 0.0674175 0.189109
lowerneck -6.47624 -0.146338 4.9572
upperneck 5.90694 -0.34729 -4.52658
head 3.05497 -0.228625 -2.39207
rclavicle 2.08724e-015 -1.39149e-014
rhumerus 20.678 -6.44063 -65.2121
rradius 67.6877
rwrist 21.5315
rhand 23.0979 -24.3044
rfingers 7.12502
rthumb 47.4093 -46.7881
lclavicle 2.08724e-015 -1.39149e-014
lhumerus 20.91 0.949387 60.0982
lradius 73.3751
lwrist -6.37928
lhand 27.1825 32.6962
lfingers 7.12502
lthumb 51.157 53.2896
rfemur 2.76791 -12.3449 11.4382
rtibia 54.2135
rfoot -32.223 -9.92664
rtoes -12.8199
lfemur 1.717 11.9296 1.6836
ltibia 52.9331
lfoot -35.9257 -8.483
ltoes -13.1569
328
root -14.3625 15.9707 -2.27757 104.861 -85.449 -122.974
lowerback 12.5732 0.164804 0.838058
upperback 3.14124 0.225919 0.642971
thorax -3.75111 0.0517223 0.166222
lowerneck -6.49917 -0.155686 5.0183
upperneck 5.91005 -0.362372 -4.58529
head 3.06051 -0.237041 -2.42446
rclavicle -2.38542e-015 -3.97569e-016
rhumerus 20.6824 -6.43144 -65.1974
rradius 67.6763
rwrist 21.5306
rhand 23.0434 -24.3375
rfingers 7.12502
rthumb 47.359 -46.8439
lclavicle -2.38542e-015 -3.97569e-016
lhumerus 20.9616 0.878947 60.1285
lradius 73.378
lwrist -6.35582
lhand 27.1748 32.7558
lfingers 7.12502
lthumb 51.15 53.3531
rfemur 2.77877 -12.4649 11.1482
rtibia 54.2118
rfoot -32.2371 -9.84431
rtoes -12.9092
lfemur 1.65717 11.8435 1.38576
ltibia 52.93
lfoot -35.921 -8.40237
ltoes -13.1499
329
root -14.3631 15.9691 -2.28333 104.994 -85.241 -123.169
lowerback 12.6131 0.183672 0.90692
upperback 3.14997 0.262616 0.730065
thorax -3.76372 0.0688687 0.21251
lowerneck -6.52592 -0.138679 4.94311
upperneck 5.97046 -0.335861 -4.53791
head 3.08686 -0.224074 -2.39461
rclavicle 2.98177e-015 -6.36111e-015
rhumerus 20.6932 -6.36932 -65.2089
rradius 67.6651
rwrist 21.5269
rhand 23.0862 -24.3602
rfingers 7.12502
rthumb 47.3985 -46.8489
lclavicle 2.98177e-015 -6.36111e-015
lhumerus 20.9339 0.859278 60.1471
lradius 73.4142
lwrist -6.36056
lhand 27.2169 32.7298
lfingers 7.12502
lthumb 51.1883 53.3055
rfemur 2.80558 -12.3273 11.4368
rtibia 54.1969
rfoot -32.2058 -9.93755
rtoes -12.8629
lfemur 1.72705 11.9099 1.68263
ltibia 52.9669
lfoot -35.9427 -8.47878
ltoes -13.1535
330
root -14.3622 15.9712 -2.27897 104.835 -85.3663 -123
lowerback 12.6285 0.177688 0.851253
upperback 3.13138 0.247178 0.68887
thorax -3.79173 0.0619031 0.203312
lowerneck -6.50147 -0.137798 4.9645
upperneck 5.97164 -0.336803 -4.52099
head 3.08255 -0.223141 -2.39254
rclavicle -7.45443e-016 -1.07344e-014
rhumerus 20.6807 -6.34964 -65.2101
rradius 67.66
rwrist 21.5297
rhand 23.0714 -24.3153
rfingers 7.12502
rthumb 47.3849 -46.8101
lclavicle -7.45443e-016 -1.07344e-014
lhumerus 20.8896 0.786016 60.169
lradius 73.4831
lwrist -6.33005
lhand 27.218 32.71
lfingers 7.12502
lthumb 51.1893 53.2851
rfemur 2.8245 -12.3957 11.2611
rtibia 54.1932
rfoot -32.2174 -9.87003
rtoes -12.8776
lfemur 1.69228 11.8755 1.51462
ltibia 52.9789
lfoot -35.9399 -8.47878
ltoes -13.0793
